<?xml version="1.0" encoding="UTF-8" standalone="no"?>
<!-- Created with Inkscape (http://www.inkscape.org/) -->

<svg
   version="1.1"
   id="svg1"
   width="227.68668"
   height="114.368"
   viewBox="0 0 227.68668 114.368"
   sodipodi:docname="ALR.svg"
   inkscape:version="1.3.2 (091e20ef0f, 2023-11-25)"
   xmlns:inkscape="http://www.inkscape.org/namespaces/inkscape"
   xmlns:sodipodi="http://sodipodi.sourceforge.net/DTD/sodipodi-0.dtd"
   xmlns="http://www.w3.org/2000/svg"
   xmlns:svg="http://www.w3.org/2000/svg">
  <defs
     id="defs1">
    <clipPath
       clipPathUnits="userSpaceOnUse"
       id="clipPath2">
      <path
         d="M 0,85.776 H 170.765 V 0 H 0 Z"
         transform="translate(-109.7646,-22.349601)"
         id="path2" />
    </clipPath>
    <clipPath
       clipPathUnits="userSpaceOnUse"
       id="clipPath4">
      <path
         d="M 0,85.776 H 170.765 V 0 H 0 Z"
         transform="translate(-158.56251,-17.0644)"
         id="path4" />
    </clipPath>
    <clipPath
       clipPathUnits="userSpaceOnUse"
       id="clipPath6">
      <path
         d="M 0,85.776 H 170.765 V 0 H 0 Z"
         transform="translate(-120.4629,-47.144501)"
         id="path6" />
    </clipPath>
    <clipPath
       clipPathUnits="userSpaceOnUse"
       id="clipPath8">
      <path
         d="M 0,85.776 H 170.765 V 0 H 0 Z"
         transform="translate(-41.172901,-26.3344)"
         id="path8" />
    </clipPath>
    <clipPath
       clipPathUnits="userSpaceOnUse"
       id="clipPath10">
      <path
         d="M 0,85.776 H 170.765 V 0 H 0 Z"
         transform="translate(-76.482399,-62.444801)"
         id="path10" />
    </clipPath>
    <clipPath
       clipPathUnits="userSpaceOnUse"
       id="clipPath12">
      <path
         d="M 0,85.776 H 170.765 V 0 H 0 Z"
         transform="translate(-147.0127,-44.654701)"
         id="path12" />
    </clipPath>
    <clipPath
       clipPathUnits="userSpaceOnUse"
       id="clipPath14">
      <path
         d="M 0,85.776 H 170.765 V 0 H 0 Z"
         transform="translate(-115.2646,-57.479401)"
         id="path14" />
    </clipPath>
    <clipPath
       clipPathUnits="userSpaceOnUse"
       id="clipPath16">
      <path
         d="M 0,85.776 H 170.765 V 0 H 0 Z"
         transform="translate(-119.7324,-45.574701)"
         id="path16" />
    </clipPath>
    <clipPath
       clipPathUnits="userSpaceOnUse"
       id="clipPath18">
      <path
         d="M 0,85.776 H 170.765 V 0 H 0 Z"
         transform="translate(-132.4326,-33.924801)"
         id="path18" />
    </clipPath>
    <clipPath
       clipPathUnits="userSpaceOnUse"
       id="clipPath20">
      <path
         d="M 0,85.776 H 170.765 V 0 H 0 Z"
         transform="translate(-152.7129,-24.9448)"
         id="path20" />
    </clipPath>
    <clipPath
       clipPathUnits="userSpaceOnUse"
       id="clipPath22">
      <path
         d="M 0,85.776 H 170.765 V 0 H 0 Z"
         transform="translate(-170.3428,-42.654701)"
         id="path22" />
    </clipPath>
    <clipPath
       clipPathUnits="userSpaceOnUse"
       id="clipPath24">
      <path
         d="M 0,85.776 H 170.765 V 0 H 0 Z"
         transform="translate(-169.1826,-65.564402)"
         id="path24" />
    </clipPath>
    <clipPath
       clipPathUnits="userSpaceOnUse"
       id="clipPath26">
      <path
         d="M 0,85.776 H 170.765 V 0 H 0 Z"
         transform="translate(-153.26271,-83.024402)"
         id="path26" />
    </clipPath>
    <clipPath
       clipPathUnits="userSpaceOnUse"
       id="clipPath28">
      <path
         d="M 0,85.776 H 170.765 V 0 H 0 Z"
         transform="translate(-131.7324,-75.174802)"
         id="path28" />
    </clipPath>
    <clipPath
       clipPathUnits="userSpaceOnUse"
       id="clipPath30">
      <path
         d="M 0,85.776 H 170.765 V 0 H 0 Z"
         transform="translate(-60.485402,-16.2895)"
         id="path30" />
    </clipPath>
    <clipPath
       clipPathUnits="userSpaceOnUse"
       id="clipPath32">
      <path
         d="M 0,85.776 H 170.765 V 0 H 0 Z"
         transform="translate(-149.833,-56.074702)"
         id="path32" />
    </clipPath>
    <clipPath
       clipPathUnits="userSpaceOnUse"
       id="clipPath34">
      <path
         d="M 0,85.776 H 170.765 V 0 H 0 Z"
         transform="matrix(1,0,0,-1,-0.42290001,2.4696976)"
         id="path34" />
    </clipPath>
  </defs>
  <sodipodi:namedview
     id="namedview1"
     pagecolor="#ffffff"
     bordercolor="#999999"
     borderopacity="1"
     inkscape:showpageshadow="0"
     inkscape:pageopacity="0"
     inkscape:pagecheckerboard="0"
     inkscape:deskcolor="#d1d1d1"
     inkscape:zoom="3.7621932"
     inkscape:cx="106.05516"
     inkscape:cy="70.437637"
     inkscape:window-width="1720"
     inkscape:window-height="1379"
     inkscape:window-x="26"
     inkscape:window-y="23"
     inkscape:window-maximized="0"
     inkscape:current-layer="layer-MC0" />
  <g
     id="layer-MC0"
     inkscape:groupmode="layer"
     inkscape:label="Layer 1">
    <path
       id="path1"
       d="m 0,0 c 0,-3.87 -3.13,-7 -7,-7 h -29.779 c -3.861,0 -7,3.13 -7,7 v 36.6 c 0,1.23 0.33,2.43 0.939,3.5 1.24,-2.15 3.54,-3.5 6.061,-3.5 1.939,0 3.5,1.56 3.5,3.5 0,1.93 -1.561,3.5 -3.5,3.5 0.899,0 1.79,0.34 2.479,1.02 1.361,1.37 1.361,3.59 0,4.95 l 0.401,0.41 c 0.21,-0.1 0.42,-0.2 0.62,-0.32 3.349,-1.93 4.5,-6.21 2.559,-9.56 0.62,-1.07 0.941,-2.27 0.941,-3.5 V 7 h 22.79 C -3.12,6.99 0,3.87 0,0"
       style="fill:#231916;fill-opacity:1;fill-rule:nonzero;stroke:none"
       transform="matrix(1.3333333,0,0,-1.3333333,146.3528,84.568533)"
       clip-path="url(#clipPath2)" />
    <path
       id="path3"
       d="M 0,0 C -2.359,-2.32 -6.16,-2.29 -8.479,0.07 L -15.88,7.61 C -20.1,6.79 -24.479,7.38 -28.33,9.29 l 2.2,7.57 c 0.1,0.33 -0.04,0.69 -0.309,0.88 -0.071,0.05 -0.151,0.09 -0.241,0.11 -0.36,0.11 -0.75,-0.06 -0.929,-0.39 l -3.46,-6.53 c -0.601,0.43 -1.181,0.89 -1.731,1.39 V 5.28 c 0,-3.87 -3.13,-7 -7,-7 -3.86,0 -7,3.14 -7,7 v 19 c 0.111,0.01 0.21,0.03 0.321,0.06 0.109,0.04 0.219,0.08 0.319,0.14 l 7.33,4.03 c 0.391,0.21 0.53,0.7 0.32,1.09 -0.02,0.03 -0.04,0.07 -0.059,0.09 l 0.469,0.39 c 0.88,-1.02 1.701,-2.09 2.48,-3.18 2.31,-3.81 5.7,-6.6 9.57,-8.19 4.941,-2.03 10.66,-2.09 15.861,0.23 L -9.1,17.83 c -0.25,0.21 -0.61,0.25 -0.9,0.09 -0.34,-0.19 -0.5,-0.58 -0.39,-0.95 l 2.47,-7.99 c 0.26,-0.88 1.191,-1.37 2.07,-1.1 0.88,0.27 1.371,1.2 1.1,2.07 -0.03,0.11 -0.08,0.22 -0.13,0.31 l -4.03,7.34 c -0.02,0.04 -0.05,0.08 -0.08,0.11 L 0.08,8.48 C 2.4,6.12 2.37,2.32 0,0"
       style="fill:#241916;fill-opacity:1;fill-rule:nonzero;stroke:none"
       transform="matrix(1.3333333,0,0,-1.3333333,211.41667,91.615467)"
       clip-path="url(#clipPath4)" />
    <path
       id="path5"
       d="m 0,0 -0.47,-0.39 c -0.02,0.03 -0.04,0.06 -0.07,0.08 -0.21,0.21 -0.521,0.3 -0.811,0.21 L -8.7,-2.36 V 8.11 C -5.5,5.8 -2.601,3.11 -0.07,0.1 -0.061,0.09 -0.061,0.09 -0.061,0.08 -0.04,0.05 -0.01,0.03 0,0"
       style="fill:#241916;fill-opacity:1;fill-rule:nonzero;stroke:none"
       transform="matrix(1.3333333,0,0,-1.3333333,160.6172,51.508667)"
       clip-path="url(#clipPath6)" />
    <path
       id="path7"
       d="m 0,0 c -0.01,-3.31 -2.7,-6 -6,-5.99 h -6 c -3.311,0 -6,2.69 -6,6 0,3.31 2.689,6 6,6 h 6.01 C -2.68,6 0.01,3.31 0,0"
       style="fill:#241916;fill-opacity:1;fill-rule:nonzero;stroke:none"
       transform="matrix(1.3333333,0,0,-1.3333333,54.8972,79.255467)"
       clip-path="url(#clipPath8)" />
    <path
       id="path9"
       d="m 0,0 c 0,-1.94 -1.56,-3.5 -3.5,-3.5 -2.52,0 -4.819,1.35 -6.06,3.5 -0.12,0.2 -0.219,0.41 -0.32,0.62 -1.59,3.52 -0.019,7.67 3.5,9.26 L -5.97,9.47 C -7.34,8.11 -7.34,5.89 -5.97,4.52 -5.29,3.84 -4.39,3.5 -3.5,3.5 -1.56,3.5 0,1.93 0,0"
       style="fill:#179780;fill-opacity:1;fill-rule:nonzero;stroke:none"
       transform="matrix(1.3333333,0,0,-1.3333333,101.97653,31.108267)"
       clip-path="url(#clipPath10)" />
    <path
       id="path11"
       d="m 0,0 c -5.76,-3.79 -13.5,-2.2 -17.29,3.56 -1.4,2.1 -3.01,4.06 -4.8,5.84 -1.45,1.38 -2.27,3.3 -2.24,5.3 0.06,3.95 3.3,7.1 7.24,7.04 2.53,0.04 5.04,0.33 7.51,0.86 C -4.52,23.73 0.71,21.61 3.56,17.28 7.34,11.53 5.75,3.79 0,0 m 7.57,19.92 c -3.95,6 -11.19,8.93 -18.19,7.37 -2.75,-0.61 -5.56,-0.94 -8.38,-0.96 -6.35,-0.69 -10.94,-6.4 -10.24,-12.76 0.24,-2.25 1.14,-4.38 2.59,-6.13 2.01,-1.98 3.8,-4.17 5.35,-6.52 5.25,-7.97 15.97,-10.18 23.94,-4.93 7.97,5.25 10.17,15.96 4.93,23.93"
       style="fill:#179780;fill-opacity:1;fill-rule:nonzero;stroke:none"
       transform="matrix(1.3333333,0,0,-1.3333333,196.01693,54.8284)"
       clip-path="url(#clipPath12)" />
    <path
       id="path13"
       d="m 0,0 c 0.2,-0.61 0.45,-1.21 0.761,-1.78 -0.811,0.89 -1.7,1.7 -2.67,2.4 -3.211,1.6 -4.78,5.3 -3.691,8.72 1.21,3.83 5.3,5.95 9.14,4.74 C 4.721,13.91 5.931,13.86 7.13,13.95 1.311,12.06 -1.88,5.82 0,0"
       style="fill:#179780;fill-opacity:1;fill-rule:nonzero;stroke:none"
       transform="matrix(1.3333333,0,0,-1.3333333,153.68613,37.7288)"
       clip-path="url(#clipPath14)" />
    <path
       id="path15"
       d="m 0,0 -7.33,-4.03 c -0.1,-0.06 -0.21,-0.1 -0.319,-0.14 -0.111,-0.03 -0.21,-0.05 -0.321,-0.06 -0.769,-0.08 -1.509,0.4 -1.75,1.16 -0.269,0.88 0.22,1.81 1.1,2.08 l 0.65,0.2 7.35,2.26 c 0.29,0.09 0.6,0 0.81,-0.21 C 0.221,1.24 0.24,1.21 0.261,1.18 0.28,1.16 0.3,1.12 0.32,1.09 0.53,0.7 0.391,0.21 0,0"
       style="fill:#179780;fill-opacity:1;fill-rule:nonzero;stroke:none"
       transform="matrix(1.3333333,0,0,-1.3333333,159.6432,53.601733)"
       clip-path="url(#clipPath16)" />
    <path
       id="path17"
       d="m 0,0 -2.2,-7.57 -0.14,-0.47 c -0.03,-0.11 -0.07,-0.21 -0.12,-0.31 -0.43,-0.81 -1.44,-1.12 -2.25,-0.69 -0.81,0.43 -1.12,1.43 -0.69,2.24 l 0.461,0.87 3.46,6.53 C -1.3,0.93 -0.91,1.1 -0.55,0.99 -0.46,0.97 -0.38,0.93 -0.31,0.88 -0.04,0.69 0.1,0.33 0,0"
       style="fill:#179780;fill-opacity:1;fill-rule:nonzero;stroke:none"
       transform="matrix(1.3333333,0,0,-1.3333333,176.5768,69.134933)"
       clip-path="url(#clipPath18)" />
    <path
       id="path19"
       d="m 0,0 c -0.88,-0.27 -1.811,0.22 -2.07,1.1 l -2.47,7.99 c -0.11,0.37 0.05,0.76 0.39,0.95 0.29,0.16 0.65,0.12 0.9,-0.09 C -3.21,9.91 -3.17,9.87 -3.141,9.83 -3.11,9.8 -3.08,9.76 -3.061,9.72 L 0.97,2.38 C 1.02,2.29 1.069,2.18 1.1,2.07 1.37,1.2 0.88,0.27 0,0"
       style="fill:#179780;fill-opacity:1;fill-rule:nonzero;stroke:none"
       transform="matrix(1.3333333,0,0,-1.3333333,203.6172,81.108267)"
       clip-path="url(#clipPath20)" />
    <path
       id="path21"
       d="m 0,0 c -0.43,-0.81 -1.44,-1.12 -2.25,-0.69 l -7.39,3.91 c -0.34,0.18 -0.5,0.57 -0.4,0.94 0.13,0.43 0.57,0.67 1,0.55 L -1.01,2.37 C -0.9,2.34 -0.79,2.3 -0.69,2.24 0.12,1.82 0.43,0.81 0,0"
       style="fill:#179780;fill-opacity:1;fill-rule:nonzero;stroke:none"
       transform="matrix(1.3333333,0,0,-1.3333333,227.12373,57.495067)"
       clip-path="url(#clipPath22)" />
    <path
       id="path23"
       d="m 0,0 -8,-2.46 c -0.36,-0.11 -0.76,0.05 -0.939,0.38 -0.211,0.39 -0.071,0.88 0.319,1.1 l 7.33,4.03 c 0.101,0.05 0.2,0.09 0.311,0.13 C -0.1,3.45 0.83,2.96 1.1,2.08 1.37,1.2 0.88,0.27 0,0"
       style="fill:#179780;fill-opacity:1;fill-rule:nonzero;stroke:none"
       transform="matrix(1.3333333,0,0,-1.3333333,225.5768,26.9488)"
       clip-path="url(#clipPath24)" />
    <path
       id="path25"
       d="m 0,0 -3.92,-7.39 c -0.18,-0.34 -0.57,-0.51 -0.93,-0.4 -0.43,0.12 -0.68,0.57 -0.55,1 l 2.33,8.03 c 0.03,0.11 0.08,0.22 0.13,0.32 0.43,0.81 1.43,1.12 2.25,0.69 C 0.12,1.82 0.43,0.81 0,0"
       style="fill:#179780;fill-opacity:1;fill-rule:nonzero;stroke:none"
       transform="matrix(1.3333333,0,0,-1.3333333,204.35027,3.6688)"
       clip-path="url(#clipPath26)" />
    <path
       id="path27"
       d="m 0,0 c -0.39,-0.22 -0.88,-0.07 -1.09,0.31 l -4.03,7.34 c -0.06,0.1 -0.1,0.2 -0.13,0.31 -0.27,0.88 0.221,1.81 1.101,2.08 0.87,0.27 1.799,-0.23 2.069,-1.1 l 2.46,-8 C 0.49,0.57 0.34,0.18 0,0"
       style="fill:#179780;fill-opacity:1;fill-rule:nonzero;stroke:none"
       transform="matrix(1.3333333,0,0,-1.3333333,175.6432,14.134933)"
       clip-path="url(#clipPath28)" />
    <path
       id="path29"
       d="M 0,0 C -3.351,-1.94 -7.63,-0.79 -9.561,2.56 L -28.311,35.04 -47,2.67 -47.061,2.56 c -1.909,-3.3 -6.109,-4.48 -9.449,-2.62 -3.39,1.87 -4.61,6.13 -2.73,9.51 l 18.849,32.67 c -3.41,0.53 -5.92,3.47 -5.92,6.92 0,3.86 3.13,7 7,7 h 11 c 1.191,0 2.401,-0.3 3.5,-0.94 1.111,-0.63 1.97,-1.53 2.561,-2.56 L -22.21,52.47 2.56,9.56 C 4.5,6.21 3.35,1.93 0,0"
       style="fill:#231916;fill-opacity:1;fill-rule:nonzero;stroke:none"
       transform="matrix(1.3333333,0,0,-1.3333333,80.6472,92.648667)"
       clip-path="url(#clipPath30)" />
    <path
       id="path31"
       d="m 0,0 c 0.05,-0.57 -0.37,-1.07 -0.95,-1.12 -0.571,-0.04 -1.071,0.38 -1.12,0.95 -0.22,2.71 -2.071,5.01 -4.67,5.8 -0.54,0.17 -0.85,0.75 -0.691,1.3 0.17,0.54 0.75,0.85 1.301,0.69 C -2.721,6.57 -0.29,3.56 0,0"
       style="fill:#159681;fill-opacity:1;fill-rule:nonzero;stroke:none"
       transform="matrix(1.3333333,0,0,-1.3333333,199.77733,39.601733)"
       clip-path="url(#clipPath32)" />
    <path
       id="path33"
       d="M 0.1161625,-6.359375e-4 H 1.17085 L 1.8856937,-1.7584484 h 3.421875 L 6.0224125,-6.359375e-4 H 7.1122562 L 4.1591312,-6.9967297 H 3.1044437 Z m 4.875,-2.5898437625 H 2.2021 l 1.3945312,-3.4570312 z m 7.6054685,-2.5195312 h -0.9375 v 2.3671875 c 0,1.2421875 -0.480468,2.09765621 -1.558593,2.09765621 C 9.280225,-0.69204219 9.0224125,-1.2779797 9.0224125,-2.4615734 V -5.1100109 H 8.0731938 v 3.0351562 c 0,1.37109376 0.5976562,2.19140626 1.921875,2.19140626 0.7031252,0 1.3945312,-0.3515625 1.6640622,-0.92578125 h 0.02344 v 0.8085937525 h 0.914062 z m 4.359375,0 H 15.60835 v -1.4882813 l -0.949219,0.3046875 v 1.1835938 h -1.148437 v 0.7617187 h 1.148437 v 2.9882813 c 0,1.01953121 0.609375,1.47656246 1.582032,1.47656246 0.292968,0 0.585937,-0.08203125 0.796875,-0.140625 v -0.796875 c -0.140625,0.09375 -0.351563,0.17578125 -0.644532,0.17578125 -0.433593,0 -0.785156,-0.31640625 -0.785156,-0.91406251 v -2.7890625 h 1.347656 z m 0.878907,2.5546875 c 0,1.4648437 1.066406,2.67187496 2.613281,2.67187496 1.523437,0 2.589844,-1.20703126 2.589844,-2.67187496 0,-1.5585938 -1.042969,-2.671875 -2.589844,-2.671875 -1.570313,0 -2.613281,1.1132812 -2.613281,2.671875 z m 1.007812,0 c 0,-0.9726563 0.585938,-1.9101563 1.605469,-1.9101563 0.996094,0 1.59375,0.9375 1.59375,1.9101563 0,0.9140625 -0.492188,1.91015621 -1.59375,1.91015621 -1.113281,0 -1.605469,-0.99609371 -1.605469,-1.91015621 z m 5.496094,2.5546874625 h 0.949219 V -2.3678234 c 0,-1.2421875 0.480468,-2.0976563 1.546875,-2.0976563 0.820312,0.046875 1.089843,0.6328125 1.089843,1.8164063 v 2.6484374625 h 0.9375 V -3.0357922 c 0,-1.3710937 -0.585937,-2.1914062 -1.910156,-2.1914062 -0.714844,0 -1.394531,0.3515625 -1.675781,0.9257812 h -0.02344 v -0.8085937 h -0.91406 z M 30.160108,-2.5553234 c 0,1.4648437 1.066406,2.67187496 2.613281,2.67187496 1.523438,0 2.589844,-1.20703126 2.589844,-2.67187496 0,-1.5585938 -1.042969,-2.671875 -2.589844,-2.671875 -1.570312,0 -2.613281,1.1132812 -2.613281,2.671875 z m 1.007812,0 c 0,-0.9726563 0.585938,-1.9101563 1.605469,-1.9101563 0.996094,0 1.59375,0.9375 1.59375,1.9101563 0,0.9140625 -0.492187,1.91015621 -1.59375,1.91015621 -1.113281,0 -1.605469,-0.99609371 -1.605469,-1.91015621 z m 5.496094,2.5546874625 h 0.9375 V -2.5787609 c 0,-0.9492188 0.375,-1.8867188 1.335938,-1.8867188 0.761718,0 0.914062,0.7851563 0.914062,1.4179688 v 3.0468749625 h 0.949219 V -2.5787609 c 0,-0.9492188 0.375,-1.8867188 1.335937,-1.8867188 0.761719,0 0.914063,0.7851563 0.914063,1.4179688 v 3.0468749625 h 0.9375 V -3.2818859 c 0,-1.1015625 -0.46875,-1.9453125 -1.769531,-1.9453125 -0.457032,0 -1.230469,0.2578125 -1.582032,0.984375 -0.269531,-0.6914063 -0.867187,-0.984375 -1.453125,-0.984375 -0.75,0 -1.265625,0.2695312 -1.628906,0.8554687 H 37.54292 V -5.1100109 H 36.664014 Z M 45.274366,-2.5553234 c 0,1.4648437 1.066406,2.67187496 2.613281,2.67187496 1.523437,0 2.589844,-1.20703126 2.589844,-2.67187496 0,-1.5585938 -1.042969,-2.671875 -2.589844,-2.671875 -1.570313,0 -2.613281,1.1132812 -2.613281,2.671875 z m 1.007812,0 c 0,-0.9726563 0.585938,-1.9101563 1.605469,-1.9101563 0.996094,0 1.59375,0.9375 1.59375,1.9101563 0,0.9140625 -0.492188,1.91015621 -1.59375,1.91015621 -1.113281,0 -1.605469,-0.99609371 -1.605469,-1.91015621 z M 56.29878,-5.1100109 h -0.9375 v 2.3671875 c 0,1.2421875 -0.480469,2.09765621 -1.558594,2.09765621 -0.820313,-0.046875 -1.078125,-0.63281251 -1.078125,-1.81640621 v -2.6484375 h -0.949219 v 3.0351562 c 0,1.37109376 0.597656,2.19140626 1.921875,2.19140626 0.703125,0 1.394531,-0.3515625 1.664063,-0.92578125 h 0.02344 v 0.8085937525 h 0.914063 z m 1.21875,4.94531246 c 0.421875,0.234375 0.914062,0.28125 1.394531,0.28125 0.914062,0 1.792969,-0.4921875 1.792969,-1.59374996 0,-1.6289063 -2.214844,-1.3242188 -2.214844,-2.3671875 0,-0.421875 0.410156,-0.6210938 0.902344,-0.6210938 0.210937,0 0.773437,0.1289063 0.984375,0.2578125 l 0.08203,-0.8203125 c -0.375,-0.1171875 -0.726563,-0.1992187 -1.171875,-0.1992187 -1.007813,0 -1.804688,0.5039062 -1.804688,1.5703125 0,1.4296875 2.214844,1.3476562 2.214844,2.2851562 0,0.55078126 -0.527344,0.72656251 -0.960937,0.72656251 -0.269532,0 -0.796875,-0.1171875 -1.171875,-0.3515625 z m 7.268554,0.1640625025 h 3.925782 V -0.87954219 H 65.793897 V -6.9967297 H 64.786084 Z M 73.680616,-1.1490734 c -0.234375,0.18749996 -0.960938,0.50390621 -1.582032,0.50390621 -0.890625,0 -1.675781,-0.69140621 -1.675781,-1.69921871 h 3.644531 c 0,-1.640625 -0.550781,-2.8828125 -2.25,-2.8828125 -1.441406,0 -2.402343,1.0664062 -2.402343,2.578125 0,1.66406246 0.832031,2.76562496 2.648437,2.76562496 0.84375,0 1.253906,-0.19921875 1.617188,-0.328125 z m -3.257813,-1.8984375 c 0.07031,-0.65625 0.445313,-1.4179688 1.371094,-1.4179688 0.808594,0 1.277344,0.6328125 1.277344,1.4179688 z m 5.238281,-0.9023438 c 0.386719,-0.3164062 0.949219,-0.515625 1.488282,-0.515625 0.9375,0 1.253906,0.4453125 1.253906,1.3242188 -0.363281,-0.011719 -0.621094,-0.011719 -0.996094,-0.011719 -0.972656,0 -2.378906,0.3984375 -2.378906,1.6757813 0,1.11328121 0.773437,1.59374996 1.875,1.59374996 0.867187,0 1.359375,-0.46875 1.582031,-0.7734375 h 0.02344 v 0.6562500025 h 0.878906 C 79.375928,-0.15297969 79.352491,-0.42251094 79.352491,-0.99672969 V -3.1178234 c 0,-1.3945313 -0.597657,-2.109375 -2.050782,-2.109375 -0.65625,0 -1.21875,0.1992187 -1.6875,0.4804687 z m 2.742188,1.96875 c 0,0.7617188 -0.480469,1.33593751 -1.417969,1.33593751 -0.433594,0 -0.949219,-0.29296875 -0.949219,-0.83203121 0,-0.9023438 1.265625,-0.9726563 1.769532,-0.9726563 0.199218,0 0.398437,0.011719 0.597656,0.011719 z m 2.575195,1.9804687625 h 0.949219 V -2.3209484 c 0,-1.2890625 0.550781,-2.0859375 1.394531,-2.0859375 0.152344,0 0.351563,0.023437 0.515625,0.082031 v -0.8320312 c -0.199219,-0.046875 -0.339844,-0.070312 -0.621094,-0.070312 -0.539062,0 -1.078125,0.375 -1.335937,0.9023437 h -0.01172 v -0.7851562 h -0.890625 z m 3.94043,0 h 0.949219 V -2.3678234 c 0,-1.2421875 0.480468,-2.0976563 1.546875,-2.0976563 0.820312,0.046875 1.089843,0.6328125 1.089843,1.8164063 v 2.6484374625 h 0.9375 V -3.0357922 c 0,-1.3710937 -0.585937,-2.1914062 -1.910156,-2.1914062 -0.714844,0 -1.394531,0.3515625 -1.675781,0.9257812 h -0.02344 v -0.8085937 h -0.914062 z m 6.290039,0 h 0.9375 V -5.1100109 h -0.9375 z M 92.20503,-7.3131359 h -1.054688 v 1.0546875 h 1.054688 z m 1.702148,7.3124999625 h 0.949219 V -2.3678234 c 0,-1.2421875 0.480469,-2.0976563 1.546875,-2.0976563 0.820312,0.046875 1.089844,0.6328125 1.089844,1.8164063 v 2.6484374625 h 0.9375 V -3.0357922 c 0,-1.3710937 -0.585938,-2.1914062 -1.910157,-2.1914062 -0.714843,0 -1.394531,0.3515625 -1.675781,0.9257812 h -0.02344 v -0.8085937 h -0.91406 z M 104.59468,-5.1100109 h -0.86719 v 0.7617187 h -0.0234 c -0.28125,-0.5507812 -0.78515,-0.8789062 -1.6875,-0.8789062 -1.53515,0 -2.285153,1.3945312 -2.285153,2.7070312 0,1.3242188 0.726563,2.5195312625 2.191403,2.5195312625 0.64453,0 1.3125,-0.2578125025 1.71094,-0.7968750025 h 0.0234 v 0.50390625 c 0,1.08984375 -0.59766,1.75781249 -1.58203,1.75781249 -0.69141,0 -1.125,-0.1289062 -1.85157,-0.46874999 l -0.0937,0.87890629 c 0.82032,0.28125 1.28907,0.3515625 1.82813,0.3515625 1.83984,0 2.63672,-0.890625 2.63672,-2.44921879 z m -2.4375,4.34765621 c -0.87891,0 -1.41797,-0.84375001 -1.41797,-1.80468751 0,-0.8671875 0.46875,-1.8984375 1.41797,-1.8984375 1.00781,0 1.5,0.9023438 1.5,1.96875 0,0.9492188 -0.6211,1.73437501 -1.5,1.73437501 z m 6.9375,0.7617187525 h 0.99609 V -3.1061047 h 0.60938 c 0.52734,0 0.85547,0 1.17187,0.6796875 l 1.06641,2.4257812625 h 1.14844 L 112.76265,-2.7896984 c -0.22266,-0.421875 -0.375,-0.5742188 -0.67969,-0.703125 v -0.011719 c 0.80859,-0.140625 1.44141,-0.75 1.44141,-1.59375 0,-1.6757812 -1.33594,-1.8984375 -2.71875,-1.8984375 h -1.71094 z M 110.09077,-6.1178234 h 0.97266 c 0.91406,0 1.39453,0.4101562 1.39453,1.0429687 0,0.6679688 -0.5625,1.0898438 -1.51172,1.0898438 h -0.85547 z m 4.79297,3.5625 c 0,1.4648437 1.06641,2.67187496 2.61328,2.67187496 1.52344,0 2.58985,-1.20703126 2.58985,-2.67187496 0,-1.5585938 -1.04297,-2.671875 -2.58985,-2.671875 -1.57031,0 -2.61328,1.1132812 -2.61328,2.671875 z m 1.00781,0 c 0,-0.9726563 0.58594,-1.9101563 1.60547,-1.9101563 0.9961,0 1.59375,0.9375 1.59375,1.9101563 0,0.9140625 -0.49219,1.91015621 -1.59375,1.91015621 -1.11328,0 -1.60547,-0.99609371 -1.60547,-1.91015621 z m 5.4961,2.5546874625 h 0.90234 V -0.72719844 h 0.0234 c 0.24609,0.38671875 0.83203,0.84375 1.74609,0.84375 1.53516,0 2.19141,-1.35937496 2.19141,-2.76562496 0,-1.3710938 -0.71485,-2.578125 -2.20313,-2.578125 -0.89062,0 -1.40625,0.3515625 -1.69922,0.8203125 h -0.0117 v -3.1054688 h -0.94922 z M 125.25483,-2.5787609 c 0.0117,0.8085937 -0.41015,1.93359371 -1.41796,1.93359371 -1.06641,0 -1.5,-1.04296871 -1.5,-1.89843751 0,-0.9492187 0.49218,-1.921875 1.51171,-1.921875 1.01954,0 1.41797,0.9726563 1.40625,1.8867188 z m 1.95411,0.023437 c 0,1.4648437 1.0664,2.67187496 2.61328,2.67187496 1.52343,0 2.58984,-1.20703126 2.58984,-2.67187496 0,-1.5585938 -1.04297,-2.671875 -2.58984,-2.671875 -1.57032,0 -2.61328,1.1132812 -2.61328,2.671875 z m 1.00781,0 c 0,-0.9726563 0.58594,-1.9101563 1.60547,-1.9101563 0.99609,0 1.59375,0.9375 1.59375,1.9101563 0,0.9140625 -0.49219,1.91015621 -1.59375,1.91015621 -1.11328,0 -1.60547,-0.99609371 -1.60547,-1.91015621 z m 8.21484,-2.5546875 h -1.34765 v -1.4882813 l -0.94922,0.3046875 v 1.1835938 h -1.14844 v 0.7617187 h 1.14844 v 2.9882813 c 0,1.01953121 0.60937,1.47656246 1.58203,1.47656246 0.29297,0 0.58594,-0.08203125 0.79687,-0.140625 v -0.796875 c -0.14062,0.09375 -0.35156,0.17578125 -0.64453,0.17578125 -0.43359,0 -0.78515,-0.31640625 -0.78515,-0.91406251 v -2.7890625 h 1.34765 z m 0.79981,4.94531246 c 0.42187,0.234375 0.91406,0.28125 1.39453,0.28125 0.91406,0 1.79297,-0.4921875 1.79297,-1.59374996 0,-1.6289063 -2.21485,-1.3242188 -2.21485,-2.3671875 0,-0.421875 0.41016,-0.6210938 0.90235,-0.6210938 0.21093,0 0.77343,0.1289063 0.98437,0.2578125 l 0.082,-0.8203125 c -0.375,-0.1171875 -0.72656,-0.1992187 -1.17187,-0.1992187 -1.00781,0 -1.80469,0.5039062 -1.80469,1.5703125 0,1.4296875 2.21484,1.3476562 2.21484,2.2851562 0,0.55078126 -0.52734,0.72656251 -0.96093,0.72656251 -0.26953,0 -0.79688,-0.1171875 -1.17188,-0.3515625 z m 7.26562,0.1640625025 h 3.92578 V -0.87954219 h -2.91797 V -6.9967297 h -1.00781 z M 149.76167,-3.9498547 c 0.38672,-0.3164062 0.94922,-0.515625 1.48828,-0.515625 0.9375,0 1.25391,0.4453125 1.25391,1.3242188 -0.36328,-0.011719 -0.6211,-0.011719 -0.9961,-0.011719 -0.97265,0 -2.3789,0.3984375 -2.3789,1.6757813 0,1.11328121 0.77344,1.59374996 1.875,1.59374996 0.86719,0 1.35937,-0.46875 1.58203,-0.7734375 h 0.0234 v 0.6562500025 h 0.8789 C 153.47651,-0.15297969 153.45308,-0.42251094 153.45308,-0.99672969 V -3.1178234 c 0,-1.3945313 -0.59766,-2.109375 -2.05078,-2.109375 -0.65625,0 -1.21875,0.1992187 -1.6875,0.4804687 z m 2.74219,1.96875 c 0,0.7617188 -0.48047,1.33593751 -1.41797,1.33593751 -0.43359,0 -0.94922,-0.29296875 -0.94922,-0.83203121 0,-0.9023438 1.26563,-0.9726563 1.76953,-0.9726563 0.19922,0 0.39844,0.011719 0.59766,0.011719 z m 2.57519,1.9804687625 h 0.90235 V -0.72719844 h 0.0234 c 0.2461,0.38671875 0.83204,0.84375 1.7461,0.84375 1.53515,0 2.1914,-1.35937496 2.1914,-2.76562496 0,-1.3710938 -0.71484,-2.578125 -2.20312,-2.578125 -0.89063,0 -1.40625,0.3515625 -1.69922,0.8203125 h -0.0117 v -3.1054688 h -0.94922 z M 158.94624,-2.5787609 c 0.0117,0.8085937 -0.41016,1.93359371 -1.41797,1.93359371 -1.0664,0 -1.5,-1.04296871 -1.5,-1.89843751 0,-0.9492187 0.49219,-1.921875 1.51172,-1.921875 1.01953,0 1.41797,0.9726563 1.40625,1.8867188 z m 0,0"
       style="fill:#000100;fill-opacity:1;fill-rule:nonzero;stroke:none"
       aria-label="Autonomous Learning Robots Lab"
       transform="matrix(1.3333333,0,0,1.3333333,0.56386667,111.07507)"
       clip-path="url(#clipPath34)" />
  </g>
</svg>
